<svg width="76" height="77" viewBox="0 0 76 77" fill="none" xmlns="http://www.w3.org/2000/svg">
<ellipse cx="38" cy="38.5" rx="38" ry="38.5" fill="#E0FFD3"/>
<path d="M35.75 25.3932V54.8682H44.25V25.3932C44.25 23.5919 43.4 22.1182 40.85 22.1182H39.15C36.6 22.1182 35.75 23.5919 35.75 25.3932ZM23 35.2182V54.8682H30.5556V35.2182C30.5556 33.4169 29.8 31.9432 27.5333 31.9432H26.0222C23.7556 31.9432 23 33.4169 23 35.2182ZM49.4444 43.4057V54.8682H57V43.4057C57 41.6044 56.2444 40.1307 53.9778 40.1307H52.4667C50.2 40.1307 49.4444 41.6044 49.4444 43.4057Z" fill="#85D960" stroke="#FFFDFD" stroke-linecap="round" stroke-linejoin="round"/>
</svg>
